# xmcd
#
# Track frame offsets:
#	150
#	19160
#	31929
#	60459
#	74675
#	89684
#	106643
#	129475
#	142467
#	160754
#	175183
#	196186
#	214941
#	225386
#	240427
#	258997
#	272933
#
# Disc length: 3775
#
# Revision: 1
# Processed by: cddbd v1.5.1PL0 Copyright (c) Steve Scherf et al.
# Submitted via: dBpowerAMP V4.0
# Normalized: r0:DSETVAR1,TDELIM( - )
#
DISCID=f10ebd11
DTITLE=Various Artist - Late night moods
DYEAR=1900
DGENRE=
TTITLE0=Katie Melua - Closest Thing To Crazy
TTITLE1=Julie London - Cry Me A River
TTITLE2=Al Green - How Can You Mend A Broken Heart
TTITLE3=Billie Holiday - Trav'lin' Light
TTITLE4=Bobby Womack - California Dreamin'
TTITLE5=Lou Rawls - The Girl From Ipanema
TTITLE6=Minnie Riperton and Jose Feliciano - Light My Fire
TTITLE7=Jose Feliciano - Don't Let The Sun Catch You Crying
TTITLE8=Freddie Jackson - Rock Me Tonight (For Old Time Sake
TTITLE9=Candi Staton - How Can I Put Out The Flames (when You Keep The Fire Burning)
TTITLE10=Minnie Riperton - Inside My Love
TTITLE11=Charlie Hunter feat. Norah Jones - More Than This
TTITLE12=Peggy Lee - A Taste of Honey
TTITLE13=Tony Bennett and Kd Lang - What A Wonderful World
TTITLE14=Cassandra Wilson - Time After Time
TTITLE15=George Shearing Quintet With Nancy Wilson - All Night Long
TTITLE16=Chet Baker - My Funny Valantine
EXTD=TWT
EXTT0=
EXTT1=
EXTT2=
EXTT3=
EXTT4=
EXTT5=
EXTT6=
EXTT7=
EXTT8=
EXTT9=
EXTT10=
EXTT11=
EXTT12=
EXTT13=
EXTT14=
EXTT15=
EXTT16=
PLAYORDER=
